<svg xmlns="http://www.w3.org/2000/svg" fill="none" viewBox="0 0 81 30">
  <path stroke="#fff" stroke-width="1.5" d="M17.925 6.292h-6.568v6.597h6.568V6.292Zm27.26 6.595H38.62V6.29h6.567v6.597ZM28.772 28.571H41.08v-4.953h-2.462V17.84h2.814l3.269 5.778h-1.158v4.953h10.674v-4.953H51.27l-3.698-6.519 4.182-4.212V6.292L46.83 1.34H28.77v4.952h2.462v17.326H28.77v4.953ZM74.908 1.34h4.924v7.422h-4.924v-2.47h-6.566v6.595h6.566v4.953h-6.566v5.778h2.46v4.953H58.495v-4.953h2.462V6.292h-2.462V1.34h16.414Zm-73.4 0H19.56l1.036 1.026 3.896 3.926v6.595l-3.478 3.498-1.454 1.455h-8.202v5.778h2.46v4.953H1.51v-4.953h2.46V6.292H1.509V1.34Z"/>
</svg>