<svg xmlns="http://www.w3.org/2000/svg" fill="none" viewBox="0 0 1265 236">
  <g fill="#fff" filter="url(#a)">
    <path d="M337.726 43.016h20.16l23.29 114.716h-18.18l-6.621-34.821h-50.04l-19.839 34.821h-17.28l68.51-114.716Zm16.608 68.052-9.836-51.79h-1.62l-29.764 51.79h41.22Zm67.448-77.066h16.2l-23.804 123.73h-16.2l23.804-123.73ZM478.655 159.5c-26.64 0-38.283-8.72-34.927-26.16l6.495-33.761c1.995-10.37 6.423-17.794 13.285-22.272 7.004-4.595 17.286-6.893 30.846-6.893 12.84 0 21.661 2.18 26.462 6.54 4.921 4.36 6.35 11.902 4.287 22.625l-3.639 18.913h-58.5l-2.482 12.903c-1.134 5.892.15 10.135 3.851 12.727 3.702 2.592 9.932 3.889 18.692 3.889 8.28 0 18.332-1.414 30.156-4.242l-2.346 12.196c-11.494 2.357-22.22 3.535-32.18 3.535Zm28.616-51.437 2.584-13.433c.998-5.185.058-8.72-2.82-10.606-2.734-2.003-7.941-3.005-15.621-3.005-7.44 0-13.033 1.002-16.779 3.005-3.722 1.886-6.082 5.42-7.08 10.606l-2.584 13.433h42.3Zm47.791-35.882h15.3l-2.686 13.964c.521-2.71 2.208-5.244 5.062-7.6 2.876-2.475 6.31-4.42 10.302-5.833 4.015-1.532 7.822-2.298 11.422-2.298h7.92l-2.618 13.61h-9c-7.68 0-13.453 1.002-17.319 3.005-3.722 1.886-6.071 5.362-7.046 10.429l-11.596 60.274h-16.2l16.459-85.55Zm82.846 87.319c-7.44 0-13.112-.766-17.018-2.298-3.882-1.65-6.421-4.36-7.615-8.131-1.052-3.888-.909-9.309.428-16.262l9.658-50.199h-19.44l2.006-10.429h19.44l5.101-26.514h16.38l-5.101 26.514h31.14l-2.006 10.43h-31.14l-9.828 51.082c-.816 4.242-.948 7.424-.396 9.545.672 2.121 2.177 3.653 4.516 4.596 2.481.825 6.182 1.237 11.102 1.237 1.56 0 5.97-.471 13.232-1.414l-2.007 10.429c-6.301.943-12.452 1.414-18.452 1.414Zm62.702 0c-8.28 0-14.552-.766-18.818-2.298-4.145-1.532-6.864-4.242-8.155-8.131-1.172-3.888-1.055-9.486.35-16.792 1.247-6.481 3.111-11.489 5.591-15.024 2.623-3.653 6.301-6.246 11.036-7.778 4.855-1.532 11.422-2.298 19.702-2.298h26.1l2.619-13.61c.612-3.182.416-5.597-.586-7.247-.86-1.768-2.722-3.005-5.586-3.712-2.744-.707-6.936-1.06-12.576-1.06-9 0-19.096.707-30.288 2.12l2.244-11.666c12.084-1.06 22.926-1.59 32.526-1.59 10.08 0 17.373.766 21.878 2.298 4.528 1.414 7.341 3.947 8.438 7.6 1.097 3.653.909 9.31-.565 16.969l-11.63 60.451h-15.66l1.565-8.13c-2.59 6.599-11.985 9.898-28.185 9.898Zm4.707-10.429c5.88 0 10.939-.412 15.178-1.237 5.604-1.061 8.78-3.535 9.528-7.424l4.489-23.332h-25.02c-5.16 0-8.96.412-11.398 1.237-2.416.707-4.188 2.121-5.316 4.242-1.129 2.122-2.146 5.539-3.053 10.252-.816 4.243-1.031 7.542-.644 9.899.409 2.239 1.592 3.889 3.548 4.949 1.978.943 5.128 1.414 9.448 1.414h3.24ZM835.62 43.016h41.76c9.96 0 17.688 1.002 23.182 3.005 5.037 1.886 8.184 4.242 9.44 7.07 1.376 2.828 1.588 6.717.635 11.666l-2.958 15.378c-.884 4.596-2.896 8.19-6.034 10.783-3.117 2.474-7.488 4.3-13.115 5.48l-.136.706c6.156 1.06 10.837 3.241 14.042 6.54 3.348 3.182 4.557 7.189 3.628 12.02l-3.707 19.267c-1.61 8.366-5.923 14.258-12.941 17.675-7.017 3.418-17.966 5.126-32.846 5.126h-43.02l22.07-114.716Zm32.642 50.2c7.32 0 12.744-1.061 16.273-3.182 3.67-2.239 5.959-5.715 6.866-10.429l2.584-13.434c.839-4.36-.191-7.423-3.091-9.19-2.9-1.769-8.13-2.652-15.69-2.652h-24.3l-7.482 38.887h24.84Zm-9.413 52.674c8.76 0 15.11-.884 19.05-2.652 3.94-1.767 6.318-4.772 7.134-9.014l3.333-17.323c.589-3.064.394-5.479-.586-7.247-.837-1.885-2.497-3.24-4.978-4.065-2.504-.707-4.765-1.12-6.782-1.238-1.995-.235-5.032-.353-9.112-.353h-25.56l-8.059 41.892h25.56Zm80.471-73.709h15.3l-2.687 13.964c.522-2.71 2.209-5.244 5.063-7.6 2.876-2.475 6.31-4.42 10.302-5.833 4.014-1.532 7.822-2.298 11.422-2.298h7.92l-2.619 13.61h-9c-7.68 0-13.452 1.002-17.318 3.005-3.722 1.886-6.071 5.362-7.046 10.429l-11.596 60.274h-16.2l16.459-85.55Zm73.13 87.319c-8.28 0-14.556-.766-18.822-2.298-4.145-1.532-6.864-4.242-8.155-8.131-1.172-3.888-1.055-9.486.35-16.792 1.247-6.481 3.111-11.489 5.591-15.024 2.622-3.653 6.301-6.246 11.036-7.778 4.85-1.532 11.42-2.298 19.7-2.298h26.1l2.62-13.61c.61-3.182.42-5.597-.59-7.247-.86-1.768-2.72-3.005-5.58-3.712-2.75-.707-6.94-1.06-12.58-1.06-9 0-19.09.707-30.29 2.12l2.25-11.666c12.08-1.06 22.93-1.59 32.53-1.59 10.08 0 17.37.766 21.87 2.298 4.53 1.414 7.34 3.947 8.44 7.6 1.1 3.653.91 9.31-.56 16.969l-11.63 60.451h-15.66l1.56-8.13c-2.59 6.599-11.98 9.898-28.18 9.898Zm4.7-10.429c5.88 0 10.94-.412 15.18-1.237 5.6-1.061 8.78-3.535 9.53-7.424l4.49-23.332h-25.02c-5.16 0-8.96.412-11.4 1.237-2.42.707-4.19 2.121-5.32 4.242-1.12 2.122-2.14 5.539-3.05 10.252-.82 4.243-1.03 7.542-.64 9.899.41 2.239 1.59 3.889 3.54 4.949 1.98.943 5.13 1.414 9.45 1.414h3.24Zm91.97 10.429c-9.24 0-19.06-.707-29.47-2.121l2.35-12.196c13.61 2.239 23.47 3.358 29.59 3.358 7.68 0 13.34-.707 16.97-2.121 3.65-1.532 5.87-4.301 6.64-8.308l1.66-8.661c.71-3.653-.06-6.245-2.28-7.777-2.23-1.532-6.16-2.298-11.8-2.298h-9.9c-9 0-15.55-1.827-19.64-5.48-3.98-3.653-5.34-8.779-4.07-15.378l1.53-7.954c2.59-13.433 16.84-20.15 42.76-20.15 1.92 0 10.65.471 26.19 1.414l-2.21 11.49c-10.36-1.65-19.27-2.475-26.71-2.475-8.52 0-14.49.824-17.93 2.474-3.44 1.65-5.53 4.42-6.28 8.308l-1.39 7.247c-1.12 5.774 3.67 8.661 14.35 8.661h10.08c18.36 0 26.25 6.717 23.66 20.15l-1.43 7.424c-1.7 8.838-6.03 15.143-12.99 18.914-6.95 3.653-16.84 5.479-29.68 5.479Zm83.12-118.251h16.2l-3.19 16.615h-16.2l3.19-16.615Zm-5.95 30.932h16.2l-16.46 85.551h-16.2l16.46-85.55Zm51.64-38.179h16.2l-23.8 123.73h-16.2l23.8-123.73Z"/>
  </g>
  <g filter="url(#b)">
    <path fill="#fff" d="m284.172 214.814-8.958-.027.722-4.091 8.343.027a11.4 11.4 0 0 0 3.583-.562c1.159-.392 2.13-1.007 2.915-1.845.802-.838 1.292-1.943 1.471-3.316.142-1.194-.018-2.193-.482-2.995-.445-.82-1.105-1.435-1.979-1.845-.873-.428-1.863-.659-2.968-.695l-7.594-.027-4.707 27.062h-4.84l5.429-31.153 11.792.026c1.926.054 3.682.446 5.268 1.177 1.587.713 2.835 1.774 3.744 3.182.909 1.391 1.293 3.129 1.15 5.215-.125 1.747-.57 3.244-1.337 4.492a9.5 9.5 0 0 1-2.942 3.075c-1.194.785-2.531 1.364-4.011 1.739a18.694 18.694 0 0 1-4.599.561Zm20.813-19.467 10.723.026c1.444.036 2.799.241 4.065.616 1.283.374 2.407.935 3.369 1.684.963.731 1.694 1.676 2.193 2.835.499 1.141.695 2.504.588 4.091-.125 1.783-.597 3.254-1.417 4.412-.802 1.141-1.836 2.086-3.102 2.835a24.987 24.987 0 0 1-4.172 1.952l-1.524.695h-10.562l.668-4.064 7.461.026c1.194 0 2.353-.196 3.476-.588a7.154 7.154 0 0 0 2.861-1.818c.785-.838 1.266-1.917 1.444-3.236.143-1.212-.008-2.211-.454-2.995-.446-.784-1.105-1.364-1.979-1.738-.874-.374-1.872-.579-2.995-.615l-6.498-.027-4.706 27.062h-4.867l5.428-31.153Zm13.504 31.153-5.348-13.879 4.787-.026 5.749 13.584v.321h-5.188Zm20.76-31.153-5.402 31.153h-4.84l5.429-31.153h4.813Zm11.124 13.718-.722 4.064h-14.654l.722-4.064h14.654Zm4.413-13.718-.722 4.091H337.35l.722-4.091h16.714Zm.998 28.613c0-.874.276-1.605.829-2.193.57-.588 1.292-.892 2.166-.909.873-.018 1.586.249 2.139.802.57.553.847 1.266.829 2.139 0 .874-.285 1.596-.856 2.166-.552.571-1.265.865-2.139.883-.856.017-1.569-.241-2.139-.776-.571-.535-.847-1.239-.829-2.112Zm41.457-13.291-1.845 11.82a9.468 9.468 0 0 1-3.503 2.754 16.474 16.474 0 0 1-4.359 1.337c-1.533.25-3.013.357-4.439.321-2.121-.018-3.949-.428-5.482-1.23-1.533-.82-2.781-1.916-3.744-3.289-.944-1.391-1.604-2.968-1.978-4.733-.375-1.783-.446-3.655-.214-5.616l.267-2.246c.285-2.086.82-4.038 1.605-5.856.802-1.819 1.845-3.405 3.128-4.76a13.5 13.5 0 0 1 4.626-3.182c1.783-.767 3.798-1.124 6.044-1.07 2.086.053 3.913.463 5.482 1.23a8.84 8.84 0 0 1 3.77 3.316c.945 1.444 1.507 3.227 1.685 5.348l-4.706-.027c-.125-1.248-.455-2.299-.99-3.155a4.859 4.859 0 0 0-2.139-1.925c-.909-.446-1.997-.696-3.263-.749-1.604-.036-3.012.232-4.225.802a8.843 8.843 0 0 0-3.048 2.38c-.838 1.016-1.515 2.184-2.032 3.503a18.315 18.315 0 0 0-1.043 4.091l-.321 2.327a17.983 17.983 0 0 0-.027 3.797c.125 1.266.437 2.425.936 3.476a6.431 6.431 0 0 0 2.219 2.514c.963.642 2.193.981 3.691 1.016a16.752 16.752 0 0 0 3.797-.374 9.117 9.117 0 0 0 3.423-1.605l1.203-6.364h-7.3l.668-3.851h12.114Zm32.927-.802-.187 1.792a22.128 22.128 0 0 1-1.605 5.91 16.837 16.837 0 0 1-3.155 4.92 13.87 13.87 0 0 1-4.653 3.342c-1.783.785-3.788 1.15-6.017 1.097-2.121-.036-3.931-.473-5.428-1.31a10.155 10.155 0 0 1-3.557-3.397c-.891-1.408-1.497-2.995-1.818-4.759a19.727 19.727 0 0 1-.187-5.536l.214-1.818c.249-2.05.775-3.994 1.577-5.83a17.766 17.766 0 0 1 3.209-4.92 13.887 13.887 0 0 1 4.653-3.316c1.783-.802 3.78-1.177 5.99-1.123 2.122.036 3.922.472 5.402 1.31 1.497.838 2.692 1.961 3.583 3.37.891 1.39 1.498 2.977 1.819 4.759.32 1.765.374 3.602.16 5.509Zm-4.974 1.765.214-1.818c.125-1.248.134-2.496.027-3.744-.089-1.248-.357-2.389-.802-3.423a5.753 5.753 0 0 0-2.059-2.54c-.91-.66-2.113-1.017-3.611-1.07-1.586-.053-2.986.223-4.198.829a9.426 9.426 0 0 0-3.075 2.487 13.137 13.137 0 0 0-2.059 3.583 17.02 17.02 0 0 0-1.043 4.065l-.241 1.845a20.217 20.217 0 0 0-.08 3.744 11.88 11.88 0 0 0 .829 3.529 6.358 6.358 0 0 0 2.059 2.621c.927.678 2.139 1.043 3.637 1.096 1.622.054 3.039-.222 4.252-.828a9.222 9.222 0 0 0 3.075-2.541 13.323 13.323 0 0 0 2.032-3.663 19.869 19.869 0 0 0 1.043-4.172Zm21.883 6.846 12.221-23.131h5.375L447.398 226.5h-3.904l3.583-8.022Zm-5.669-23.131 4.252 23.612.722 7.541h-3.503l-6.472-31.153h5.001Zm23.354 28.613c0-.874.276-1.605.829-2.193.57-.588 1.292-.892 2.166-.909.873-.018 1.586.249 2.139.802.57.553.847 1.266.829 2.139 0 .874-.285 1.596-.856 2.166-.553.571-1.266.865-2.139.883-.856.017-1.569-.241-2.139-.776-.571-.535-.847-1.239-.829-2.112Zm28.862-11.659h-8.557l.615-3.744 7.113.027a12.124 12.124 0 0 0 3.075-.455c1.034-.303 1.917-.793 2.647-1.471.731-.695 1.177-1.631 1.337-2.808.143-1.141-.026-2.023-.508-2.647-.481-.624-1.149-1.061-2.005-1.31a9.4 9.4 0 0 0-2.701-.428l-6.017-.027-4.706 27.062h-4.84l5.428-31.153 10.215.026c1.302.036 2.567.205 3.797.509 1.248.285 2.354.748 3.316 1.39a6.591 6.591 0 0 1 2.247 2.54c.534 1.034.757 2.309.668 3.824-.107 1.641-.633 2.978-1.578 4.012-.927 1.034-2.085 1.827-3.476 2.38a15.916 15.916 0 0 1-4.198 1.016l-1.872 1.257Zm-2.648 14.199h-10.241l3.182-4.065 7.193.027a10.888 10.888 0 0 0 3.236-.535c1.052-.338 1.943-.882 2.674-1.631.731-.749 1.185-1.738 1.364-2.968.142-1.105.026-2.015-.348-2.728-.356-.731-.918-1.283-1.685-1.658-.748-.374-1.64-.579-2.674-.615l-6.524-.026.695-3.744 8.049.027.802 1.417c1.337.142 2.505.535 3.503 1.176a6.25 6.25 0 0 1 2.273 2.541c.535 1.052.758 2.264.669 3.637-.089 1.658-.491 3.075-1.204 4.251a8.703 8.703 0 0 1-2.808 2.835c-1.14.713-2.415 1.239-3.823 1.578a17.585 17.585 0 0 1-4.333.481Zm23.087-31.153 10.723.026c1.444.036 2.799.241 4.064.616 1.284.374 2.407.935 3.37 1.684.963.731 1.693 1.676 2.193 2.835.499 1.141.695 2.504.588 4.091-.125 1.783-.597 3.254-1.417 4.412-.803 1.141-1.837 2.086-3.102 2.835a25.024 25.024 0 0 1-4.172 1.952l-1.524.695h-10.563l.669-4.064 7.46.026c1.195 0 2.354-.196 3.477-.588a7.154 7.154 0 0 0 2.861-1.818c.784-.838 1.266-1.917 1.444-3.236.143-1.212-.009-2.211-.455-2.995-.445-.784-1.105-1.364-1.978-1.738-.874-.374-1.872-.579-2.995-.615l-6.498-.027-4.707 27.062h-4.867l5.429-31.153Zm13.504 31.153-5.348-13.879 4.786-.026 5.75 13.584v.321h-5.188Z"/>
  </g>
  <g filter="url(#c)">
    <path fill="#FFC900" d="M145.946 55.868 113.981.5H93.05l31.964 55.368 9.818 17.002 62.12 107.629 71.924-124.631h-122.93Zm10.574 18.176h80.931l-40.513 70.101-40.418-70.1Z"/>
    <path fill="#fff" d="M134.111 108.131 71.965.501 0 125.132h122.889l31.965 55.368h21.04l-32.006-55.368-9.777-17.001Zm-102.632-1.175 40.513-70.088 40.512 70.088H31.478Z"/>
  </g>
  <defs>
    <filter id="a" width="994.918" height="135.499" x="269.216" y="34.002" color-interpolation-filters="sRGB" filterUnits="userSpaceOnUse">
      <feFlood flood-opacity="0" result="BackgroundImageFix"/>
      <feColorMatrix in="SourceAlpha" result="hardAlpha" values="0 0 0 0 0 0 0 0 0 0 0 0 0 0 0 0 0 0 127 0"/>
      <feOffset dx="10" dy="10"/>
      <feComposite in2="hardAlpha" operator="out"/>
      <feColorMatrix values="0 0 0 0 0 0 0 0 0 0 0 0 0 0 0 0 0 0 1 0"/>
      <feBlend in2="BackgroundImageFix" result="effect1_dropShadow_217_21278"/>
      <feBlend in="SourceGraphic" in2="effect1_dropShadow_217_21278" result="shape"/>
    </filter>
    <filter id="b" width="269.483" height="36.169" x="269.678" y="194.839" color-interpolation-filters="sRGB" filterUnits="userSpaceOnUse">
      <feFlood flood-opacity="0" result="BackgroundImageFix"/>
      <feColorMatrix in="SourceAlpha" result="hardAlpha" values="0 0 0 0 0 0 0 0 0 0 0 0 0 0 0 0 0 0 127 0"/>
      <feOffset dx="4" dy="4"/>
      <feComposite in2="hardAlpha" operator="out"/>
      <feColorMatrix values="0 0 0 0 0 0 0 0 0 0 0 0 0 0 0 0 0 0 1 0"/>
      <feBlend in2="BackgroundImageFix" result="effect1_dropShadow_217_21278"/>
      <feBlend in="SourceGraphic" in2="effect1_dropShadow_217_21278" result="shape"/>
    </filter>
    <filter id="c" width="278.876" height="190" x="0" y=".5" color-interpolation-filters="sRGB" filterUnits="userSpaceOnUse">
      <feFlood flood-opacity="0" result="BackgroundImageFix"/>
      <feColorMatrix in="SourceAlpha" result="hardAlpha" values="0 0 0 0 0 0 0 0 0 0 0 0 0 0 0 0 0 0 127 0"/>
      <feOffset dx="10" dy="10"/>
      <feComposite in2="hardAlpha" operator="out"/>
      <feColorMatrix values="0 0 0 0 0 0 0 0 0 0 0 0 0 0 0 0 0 0 1 0"/>
      <feBlend in2="BackgroundImageFix" result="effect1_dropShadow_217_21278"/>
      <feBlend in="SourceGraphic" in2="effect1_dropShadow_217_21278" result="shape"/>
    </filter>
  </defs>
</svg>